<svg xmlns="http://www.w3.org/2000/svg" width="24" height="24" viewBox="0 0 24 24" fill="none">
	<g clip-path="url(#clip0_1367_69)">

		<path fill-rule="evenodd" clip-rule="evenodd" d="M5.25 8.75V10.8046C4.13525 10.8879 3.40931 11.098 2.87868 11.6287C2 12.5074 2 13.9216 2 16.75C2 19.5784 2 20.9926 2.87868 21.8713C3.75736 22.75 5.17157 22.75 8 22.75H16C18.8284 22.75 20.2426 22.75 21.1213 21.8713C22 20.9926 22 19.5784 22 16.75C22 13.9216 22 12.5074 21.1213 11.6287C20.5907 11.098 19.8648 10.8879 18.75 10.8046V8.75C18.75 5.02208 15.7279 2 12 2C8.27208 2 5.25 5.02208 5.25 8.75ZM12 3.5C9.10051 3.5 6.75 5.85051 6.75 8.75V10.7536C7.13301 10.75 7.54849 10.75 8 10.75H16C16.4515 10.75 16.867 10.75 17.25 10.7536V8.75C17.25 5.85051 14.8995 3.5 12 3.5ZM14.4648 13.533C14.6569 13.3409 14.9683 13.3409 15.1604 13.533L15.8559 14.2285C16.048 14.4206 16.048 14.732 15.8559 14.9241L11.5085 19.2715L10.813 19.967C10.621 20.1591 10.3095 20.1591 10.1174 19.967L9.42187 19.2715L8.14407 17.9937C7.95198 17.8016 7.95198 17.4902 8.14407 17.2981L8.83964 16.6026C9.03174 16.4105 9.34311 16.4105 9.53519 16.6026L10.4652 17.5325L14.4648 13.533Z" fill="#E12825"/>
	</g>
	<defs>
		<clipPath id="clip0_1367_69">
			<rect width="24" height="24" fill="white"/>
		</clipPath>
	</defs>
</svg>